<svg id="Layer_1" data-name="Layer 1" xmlns="http://www.w3.org/2000/svg" width="380" height="380" viewBox="0 0 380 380">
  <defs>
    <style>
      .cls-1 {
        fill: #f9f9fa;
      }

      .cls-2 {
        fill: #fff;
      }

      .cls-2, .cls-5, .cls-6 {
        stroke: #010101;
      }

      .cls-2, .cls-6 {
        stroke-opacity: 0;
        stroke-width: 3px;
      }

      .cls-3, .cls-4, .cls-5 {
        fill: none;
      }

      .cls-4 {
        stroke: #ccc;
      }

      .cls-4, .cls-5 {
        stroke-width: 1.5px;
      }

      .cls-6, .cls-7, .cls-8 {
        fill: #010101;
      }

      .cls-7, .cls-8 {
        isolation: isolate;
        font-family: Calibri;
      }

      .cls-7 {
        font-size: 14px;
      }

      .cls-8 {
        font-size: 20px;
      }
    </style>
  </defs>
  <g>
    <path class="cls-1" d="M0,0H380V380H0Z"/>
    <path class="cls-2" d="M308,190.8A110.9,110.9,0,1,1,197.1,79.9,110.9,110.9,0,0,1,308,190.8Z"/>
    <g>
      <path class="cls-3" d="M196.9,81.7a.22.22,0,0,1,.2.2V191.2a.1.1,0,0,1-.2,0V81.8c-.2-.1-.1-.1,0-.1Z"/>
      <path class="cls-4" d="M197,87.9V94m0,3v6.1m0,3v6.1m0,3v6.1m0,3v6.1m0,3.1v6.1m0,3v6.1m0,3v6.1m0,3v6.1m0,3V176m0,3v6.1m0,3v3.1h-.2v-3.1m-.1-3V179m0-3v-6.1m0-3v-6.1m0-3.1v-6.1m0-3v-6.1m0-3v-6.1m0-3v-6.1m0-3v-6.1m0-3v-6.1m0-3V97m0-3V87.9m0-3V81.8h.2v3.1"/>
    </g>
    <g>
      <path class="cls-3" d="M197.6,190.2c-.1,0-.2,0-.2-.1L127.5,70.6c0-.1,0-.2.1-.2s.2,0,.2.1L197.7,190A.35.35,0,0,0,197.6,190.2Z"/>
      <path class="cls-5" d="M194.3,184.8l-3.1-5.3m-1.6-2.6-3.1-5.3m-1.6-2.7-3.1-5.3m-1.5-2.7-3.1-5.3m-1.6-2.6-3.1-5.3M171,145l-3.1-5.3m-1.6-2.7-3.1-5.3m-1.5-2.6-3.1-5.3m-1.6-2.7-3.1-5.3m-1.6-2.7-3.1-5.3m-1.5-2.6-3.1-5.3M143,97.2l-3.1-5.3m-1.5-2.7-3.1-5.3m-1.6-2.6L130.6,76M129,73.3l-1.6-2.7v-.1l.1-.1h.1l.1.1,1.6,2.7m1.6,2.6,3.1,5.3m1.5,2.7,3.1,5.3m1.6,2.6,3.1,5.3m1.5,2.7,3.1,5.3m1.6,2.7,3.1,5.3m1.5,2.6,3.1,5.3m1.6,2.7,3.1,5.3m1.6,2.7,3.1,5.3m1.5,2.6,3.1,5.3m1.6,2.7,3.1,5.3m1.5,2.7,3.1,5.3m1.6,2.6,3.1,5.3m1.6,2.7,3.1,5.3m1.5,2.7,3.1,5.3m1.6,2.6,1.6,2.7v.1l-.1.1h-.1l-.1-.1-1.6-2.7"/>
    </g>
    <path class="cls-6" d="M203.5,190.8a6.6,6.6,0,1,1-6.6-6.5,6.51,6.51,0,0,1,6.6,6.5ZM73.8,218.6a1.17,1.17,0,0,1-1,1.4l-4.4.8a1.17,1.17,0,0,1-1.4-1l-1.6-8.9a1.17,1.17,0,0,1,1-1.4l4.4-.8a1.17,1.17,0,0,1,1.4,1Z"/>
    <path class="cls-6" d="M77.6,201.1c.4-.5.8-.4,1,.2l4.2,23.2c.1.7-.2.9-.8.6l-14.6-9a1.06,1.06,0,0,1-.3-1.6ZM120.8,70.8a1.23,1.23,0,0,1-1.6-.4L117,66.6a1.23,1.23,0,0,1,.4-1.6l7.9-4.5a1.23,1.23,0,0,1,1.6.4l2.2,3.8a1.23,1.23,0,0,1-.4,1.6Z"/>
    <path class="cls-6" d="M138.6,68.5c.6.2.7.6.1,1L118.2,81.3c-.6.3-.9.1-.8-.6l3.5-16.8a1.1,1.1,0,0,1,1.4-.8Zm54.1-10.4a1.16,1.16,0,0,1-1.2-1.2V52.5a1.16,1.16,0,0,1,1.2-1.2h9.1a1.16,1.16,0,0,1,1.2,1.2v4.4a1.16,1.16,0,0,1-1.2,1.2Z"/>
    <path class="cls-6" d="M209.3,65c.4.5.3.9-.4.9H185.3c-.7,0-.8-.4-.4-.9l11.4-12.8a1,1,0,0,1,1.6,0Zm56.3,1.4a1.08,1.08,0,0,1-.4-1.6l2.2-3.8a1.08,1.08,0,0,1,1.6-.4l7.8,4.5a1.08,1.08,0,0,1,.4,1.6L275,70.5a1.08,1.08,0,0,1-1.6.4Z"/>
    <path class="cls-6" d="M276.5,80.7c.1.6-.2.9-.8.6L255.3,69.5c-.6-.3-.5-.8.1-1l16.3-5.3a1.07,1.07,0,0,1,1.4.8Z"/>
    <path class="cls-6" d="M319.3,209.7a1.17,1.17,0,0,1,1.4-1l4.4.8a1.17,1.17,0,0,1,1,1.4l-1.6,8.9a1.17,1.17,0,0,1-1.4,1l-4.4-.8a1.17,1.17,0,0,1-1-1.4Z"/>
    <path class="cls-6" d="M309.7,224.8c-.6.3-.9.1-.8-.6l4.1-23.3c.1-.6.5-.8,1-.2l10.6,13.4a1.07,1.07,0,0,1-.3,1.6Z"/>
    <g>
      <path class="cls-3" d="M309.3,211.3c0,.1-.1.1-.2.1L197.5,192c-.1,0-.1-.1-.1-.2s.1-.1.2-.1l111.6,19.4c.1,0,.1.1.1.2Z"/>
      <path class="cls-5" d="M303.4,210.4l-5.7-1m-2.9-.5-5.7-1m-2.9-.5-5.7-1m-2.8-.5-5.7-1m-2.9-.5-5.7-1m-2.9-.5-5.7-1m-2.9-.5-5.7-1m-2.9-.5-5.7-1m-2.9-.5-5.7-1m-2.9-.5-5.7-1m-2.8-.5-5.7-1m-2.9-.5-5.7-1m-2.9-.5-2.9-.5-.1-.1v-.1l.1-.1h.1l2.9.5m2.8.6,5.7,1m2.9.4,5.7,1m2.9.5,5.7,1m2.9.5,5.7,1m2.8.5,5.7,1m2.9.5,5.7,1m2.9.5,5.7,1m2.9.5,5.7,1m2.9.5,5.7,1m2.9.5,5.7,1m2.9.5,5.7,1m2.8.5,5.7,1m2.9.5,2.9.5.1.1v.1l-.1.1h-.1l-2.9-.5"/>
    </g>
  </g>
  <text class="cls-7" transform="translate(214.21 179.46)">110°</text>
  <text class="cls-7" transform="translate(174.31 142.38)">30°</text>
  <text class="cls-8" transform="translate(44.74 226.62)">SL</text>
  <text class="cls-8" transform="translate(329.96 226.62)">SR</text>
  <text class="cls-8" transform="translate(110.77 58.11)">FL</text>
  <text class="cls-8" transform="translate(265.19 58.04)">FR</text>
  <text class="cls-8" transform="translate(192.06 44.69)">C</text>
</svg>
