<svg id="Layer_1" data-name="Layer 1" xmlns="http://www.w3.org/2000/svg" width="380" height="380" viewBox="0 0 380 380">
  <defs>
    <style>
      .cls-1 {
        fill: #f9f9fa;
      }

      .cls-2 {
        fill: #fff;
      }

      .cls-2, .cls-5 {
        stroke: #010101;
        stroke-opacity: 0;
        stroke-width: 3px;
      }

      .cls-3, .cls-4 {
        fill: none;
      }

      .cls-4 {
        stroke: #ccc;
        stroke-width: 1.5px;
      }

      .cls-5, .cls-6 {
        fill: #010101;
      }

      .cls-6 {
        isolation: isolate;
        font-size: 20px;
        font-family: Calibri;
      }
    </style>
  </defs>
  <g>
    <path class="cls-1" d="M0,0H380V380H0Z"/>
    <path class="cls-2" d="M307.7,190A110.9,110.9,0,1,1,196.8,79.1,110.9,110.9,0,0,1,307.7,190Z"/>
    <g>
      <path class="cls-3" d="M196.6,81.2c.1,0,.1.1.1.2v109a.16.16,0,0,1-.3.1V81.5C196.5,81.3,196.5,81.2,196.6,81.2Z"/>
      <path class="cls-4" d="M196.8,87.4v6.1m0,3v6.1m0,3v6.1m0,3v6.1m0,3v6.1m0,2.9v6.1m0,3V148m0,3v6.1m0,3v6.1m0,3v6.1m0,3v6.1m0,3v3.1h-.2v-3.1m-.1-3.1v-6.1m0-3v-6.1m0-2.9v-6.1m0-3V151m0-3v-6.1m0-3v-6.1m0-3v-6.1m0-3v-6.1m0-3v-6.1m0-2.9V96.5m0-3V87.4m0-3V81.3h.2v3.1"/>
    </g>
    <path class="cls-5" d="M203.2,190a6.6,6.6,0,1,1-6.6-6.5,6.71,6.71,0,0,1,6.6,6.5ZM191.1,55.5a1.16,1.16,0,0,1-1.2-1.2V49.9a1.16,1.16,0,0,1,1.2-1.2h9.1a1.16,1.16,0,0,1,1.2,1.2v4.4a1.16,1.16,0,0,1-1.2,1.2Z"/>
    <path class="cls-5" d="M207.6,62.4c.4.5.3.9-.4.9H183.6c-.7,0-.8-.4-.4-.9l11.4-12.8a1,1,0,0,1,1.6,0Z"/>
    <text class="cls-6" transform="translate(190.05 43.56)">C</text>
  </g>
</svg>
