<svg id="Layer_1" data-name="Layer 1" xmlns="http://www.w3.org/2000/svg" width="380" height="380" viewBox="0 0 380 380">
  <defs>
    <style>
      .cls-1, .cls-8 {
        fill: #f9f9fa;
      }

      .cls-2, .cls-3 {
        fill: #fff;
      }

      .cls-2, .cls-6, .cls-7, .cls-8 {
        stroke: #010101;
      }

      .cls-2, .cls-7, .cls-8 {
        stroke-opacity: 0;
        stroke-width: 3px;
      }

      .cls-3, .cls-5 {
        stroke: #ccc;
      }

      .cls-3 {
        stroke-width: 2px;
      }

      .cls-4, .cls-5, .cls-6 {
        fill: none;
      }

      .cls-5, .cls-6 {
        stroke-width: 1.5px;
      }

      .cls-10, .cls-7, .cls-9 {
        fill: #010101;
      }

      .cls-10, .cls-9 {
        isolation: isolate;
        font-family: Calibri;
      }

      .cls-9 {
        font-size: 14px;
      }

      .cls-10 {
        font-size: 20px;
      }
    </style>
  </defs>
  <g>
    <path class="cls-1" d="M0,0H380V380H0V0Z"/>
    <path class="cls-2" d="M306.5,190.4A110.9,110.9,0,1,1,195.6,79.5,110.9,110.9,0,0,1,306.5,190.4Z"/>
    <path class="cls-3" d="M179.4,191.5a1.16,1.16,0,0,1,1.2-1.2h11.9a1.16,1.16,0,0,1,1.2,1.2v12a1.16,1.16,0,0,1-1.2,1.2H180.6a1.16,1.16,0,0,1-1.2-1.2Z"/>
    <g>
      <path class="cls-4" d="M193.7,79.4c.1,0,.1.1.1.2v220a.1.1,0,0,1-.1.1.35.35,0,0,1-.2-.1V79.6C193.5,79.4,193.6,79.4,193.7,79.4Z"/>
      <path class="cls-5" d="M193.8,85.6v6.1m0,3.1v6.1m0,3.1v6.1m0,3v6.1m0,3.1v6.1m0,3.1v6.1m0,3v6.1m0,3.1v6.1m0,3.1v6.1m0,3v6.1m0,3.1v6.1m0,3.1v6.1m0,3v6.1m0,3.1v6.1m0,3.1v6.1m0,3v6.1m0,3.1v6.1m0,3.1v6.1m0,3v6.1m0,3.1v6.1m0,3.1v6.1m0,3v6.1m0,3.1v6.1m0,3.1v3.2h-.2v-3.2m-.1-3.1v-6.1m0-3v-6.1m0-3.1V269m0-3.1v-6.1m0-3v-6.1m0-3.1v-6.1m0-3.1v-6.1m0-3v-6.1m0-3.1V214m0-3.1v-6.1m0-3v-6.1m0-3.1v-6.1m0-3.1v-6.1m0-3.1v-6.1m0-3V159m0-3.1v-6.1m0-3.1v-6.1m0-3v-6.1m0-3.1v-6.1m0-3.1v-6.1m0-3V104m0-3.1V94.8m0-3.1V85.6m0-3V79.4h.2v3.2"/>
    </g>
    <g>
      <path class="cls-4" d="M253.9,292.6c-.1,0-.2,0-.2-.1L123.3,70.6c0-.1,0-.2.1-.2s.2,0,.2.1L254,292.4c0,.1,0,.1-.1.2Z"/>
      <path class="cls-6" d="M250.7,287.4l-3-5.1m-1.5-2.5-3-5.1m-1.5-2.6-3-5.1m-1.5-2.5-3-5.1m-1.5-2.6-3-5.1m-1.5-2.5-3-5.1m-1.5-2.6-3-5.1m-1.5-2.5-3-5.1m-1.5-2.6-3-5.1m-1.5-2.5-3-5.1m-1.5-2.6-3-5.1m-1.5-2.5-3-5.1m-1.5-2.6-3-5.1m-1.4-2.6-3-5.1m-1.5-2.5-3-5.1m-1.5-2.6-3-5.1m-1.5-2.5-3-5.1m-1.5-2.6-3-5.1m-1.5-2.5-3-5.1m-1.5-2.6-3-5.1m-1.5-2.5-3-5.1m-1.5-2.6-3-5.1m-1.5-2.5-3-5.1m-1.5-2.6-3-5.1m-1.5-2.5-3-5.1m-1.5-2.6-3-5.1m-1.5-2.5-3-5.1m-1.5-2.6-3-5.1m-1.5-2.6-1.5-2.6v-.1l.1-.1h.1l.1.1,1.5,2.6m1.4,2.5,3,5.1m1.5,2.6,3,5.1m1.5,2.6,3,5.1m1.5,2.5,3,5.1m1.5,2.6,3,5.1m1.5,2.5,3,5.1m1.5,2.6,3,5.1m1.5,2.5,3,5.1m1.5,2.6,3,5.1m1.5,2.5,3,5.1m1.5,2.6,3,5.1m1.5,2.5,3,5.1m1.5,2.6,3,5.1M185,175l3,5.1m1.5,2.6,3,5.1m1.5,2.5,3,5.1m1.5,2.6,3,5.1m1.5,2.5,3,5.1m1.5,2.6,3,5.1M212,221l3,5.1m1.5,2.5,3,5.1m1.5,2.6,3,5.1m1.5,2.5,3,5.1m1.5,2.6,3,5.1m1.5,2.5,3,5.1m1.5,2.6,3,5.1m1.5,2.5,3,5.1m1.5,2.6,3,5.1m1.5,2.5,1.5,2.5v.1l-.1.1h-.1l-.1-.1-1.5-2.5"/>
    </g>
    <g>
      <path class="cls-4" d="M193.2,190.3c0,.1-.1.1-.2.1H83a.16.16,0,0,1-.1-.3h110c.2,0,.3.1.3.2Z"/>
      <path class="cls-6" d="M186.9,190.4h-6.1m-3,0h-6.1m-3.1,0h-6.1m-3,0h-6.1m-3.1,0h-6.1m-3.1,0H135m-3,0h-6.1m-3.1,0h-6.1m-3.1,0h-6.1m-3,0H98.4m-3.1,0H89.2m-3.1,0H82.9v-.2h3.2m3.1-.1h6.1m3.1,0h6.1m3,0h6.1m3.1,0h6.1m3.1,0H132m3,0h6.1m3.1,0h6.1m3,0h6.1m3.1,0h6.1m3.1,0h6.1m3,0h6.1m3.1,0h3.2v.2H190"/>
    </g>
    <path class="cls-7" d="M200.2,189.9a6.6,6.6,0,1,1-6.6-6.5,6.51,6.51,0,0,1,6.6,6.5ZM316,186.6a1.16,1.16,0,0,1,1.2-1.2h4.4a1.16,1.16,0,0,1,1.2,1.2v9.1a1.16,1.16,0,0,1-1.2,1.2h-4.4a1.16,1.16,0,0,1-1.2-1.2Z"/>
    <path class="cls-7" d="M309.1,203.1c-.5.4-.9.3-.9-.4V179.1c0-.7.4-.8.9-.4l12.8,11.4a1,1,0,0,1,0,1.6Zm-238-8a1.16,1.16,0,0,1-1.2,1.2H65.5a1.16,1.16,0,0,1-1.2-1.2V186a1.16,1.16,0,0,1,1.2-1.2h4.4a1.16,1.16,0,0,1,1.2,1.2Z"/>
    <path class="cls-7" d="M77.9,178.6c.5-.4.9-.3.9.4v23.6c0,.7-.4.8-.9.4L65.1,191.6a1,1,0,0,1,0-1.6ZM117.6,69.9a1.23,1.23,0,0,1-1.6-.4l-2.2-3.8a1.23,1.23,0,0,1,.4-1.6l7.9-4.5a1.23,1.23,0,0,1,1.6.4l2.2,3.8a1.23,1.23,0,0,1-.4,1.6Z"/>
    <path class="cls-7" d="M135.3,67.6c.6.2.7.6.1,1L114.9,80.4c-.6.3-.9.1-.8-.6L117.6,63a1.1,1.1,0,0,1,1.4-.8Zm54.2-10.4a1.16,1.16,0,0,1-1.2-1.2V51.6a1.16,1.16,0,0,1,1.2-1.2h9.1a1.16,1.16,0,0,1,1.2,1.2V56a1.16,1.16,0,0,1-1.2,1.2Z"/>
    <path class="cls-7" d="M206.1,64.1c.4.5.3.9-.4.9H182.1c-.7,0-.8-.4-.4-.9l11.4-12.8a1,1,0,0,1,1.6,0Zm56.2,1.4a1.08,1.08,0,0,1-.4-1.6l2.2-3.8a1.08,1.08,0,0,1,1.6-.4l7.8,4.5a1.08,1.08,0,0,1,.4,1.6l-2.2,3.8a1.08,1.08,0,0,1-1.6.4Z"/>
    <path class="cls-7" d="M273.2,79.8c.1.6-.2.9-.8.6L252,68.6c-.6-.3-.5-.8.1-1l16.3-5.3a1.07,1.07,0,0,1,1.4.8Zm52.1-57.4a1.16,1.16,0,0,1,1.2-1.2h17.6a1.16,1.16,0,0,1,1.2,1.2V47.2a1.16,1.16,0,0,1-1.2,1.2H326.5a1.16,1.16,0,0,1-1.2-1.2Z"/>
    <path class="cls-8" d="M341.5,34.8c0,4.3-2.8,7.7-6.1,7.7s-6.2-3.5-6.2-7.7,2.8-7.7,6.2-7.7,6.1,3.5,6.1,7.7Z"/>
    <path class="cls-7" d="M337.6,34.8a2.3,2.3,0,0,1-4.6,0,2.33,2.33,0,0,1,2.3-2.3,2.39,2.39,0,0,1,2.3,2.3Z"/>
    <path class="cls-8" d="M336.3,34.8a1,1,0,0,1-1,1,1,1,0,0,1,0-2,1,1,0,0,1,1,1Z"/>
    <path class="cls-7" d="M261.9,294.8a1.17,1.17,0,0,1,1.6.5l2.2,3.9a1.17,1.17,0,0,1-.5,1.6l-7.9,4.5a1.17,1.17,0,0,1-1.6-.5l-2.2-3.9a1.17,1.17,0,0,1,.5-1.6Z"/>
    <path class="cls-7" d="M244.1,297.1c-.6-.2-.7-.6-.1-1l20.5-11.7c.6-.3.9-.1.8.6l-3.6,16.8a1.1,1.1,0,0,1-1.4.8Zm-110,2.3a1.08,1.08,0,0,1,.4,1.6l-2.3,3.8a1.08,1.08,0,0,1-1.6.4l-7.8-4.6a1.08,1.08,0,0,1-.4-1.6l2.3-3.8a1.08,1.08,0,0,1,1.6-.4Z"/>
    <path class="cls-7" d="M123.3,285c-.1-.7.2-.9.8-.6l20.3,12.1c.6.3.5.8-.1,1L128,302.6a1.14,1.14,0,0,1-1.4-.8Z"/>
    <text class="cls-9" transform="translate(217.4 193.08)">150°</text>
    <text class="cls-9" transform="translate(162.49 220.08)">90°</text>
    <text class="cls-9" transform="translate(170.5 140.91)">30°</text>
  </g>
  <text class="cls-10" transform="translate(40.87 196.55)">SL</text>
  <text class="cls-10" transform="translate(326.1 196.55)">SR</text>
  <text class="cls-10" transform="translate(105.92 321.91)">BL</text>
  <text class="cls-10" transform="translate(260.34 321.85)">BR</text>
  <text class="cls-10" transform="translate(105.91 56.04)">FL</text>
  <text class="cls-10" transform="translate(260.33 55.98)">FR</text>
  <text class="cls-10" transform="translate(187.19 45.63)">C</text>
  <text class="cls-10" transform="translate(321.32 64.55)">LFE</text>
</svg>
