<svg id="Layer_1" data-name="Layer 1" xmlns="http://www.w3.org/2000/svg" width="380" height="380" viewBox="0 0 380 380">
  <defs>
    <style>
      .cls-1 {
        fill: #f9f9fa;
      }

      .cls-2 {
        fill: #fff;
      }

      .cls-2, .cls-5, .cls-6 {
        stroke: #010101;
      }

      .cls-2, .cls-6 {
        stroke-opacity: 0;
        stroke-width: 3px;
      }

      .cls-3, .cls-4, .cls-5 {
        fill: none;
      }

      .cls-4 {
        stroke: #ccc;
      }

      .cls-4, .cls-5 {
        stroke-width: 1.5px;
      }

      .cls-6, .cls-7, .cls-8 {
        fill: #010101;
      }

      .cls-7, .cls-8 {
        isolation: isolate;
        font-family: Calibri;
      }

      .cls-7 {
        font-size: 14px;
      }

      .cls-8 {
        font-size: 20px;
      }
    </style>
  </defs>
  <g>
    <path class="cls-1" d="M0,0H380V380H0Z"/>
    <path class="cls-2" d="M300.9,187.2A110.9,110.9,0,1,1,190,76.3,110.9,110.9,0,0,1,300.9,187.2Z"/>
    <g>
      <path class="cls-3" d="M189.8,78.4a.22.22,0,0,1,.2.2v109c0,.1-.1.1-.2.1a.1.1,0,0,1-.1-.1V78.6C189.6,78.5,189.7,78.4,189.8,78.4Z"/>
      <path class="cls-4" d="M189.9,84.6v6.1m0,3v6.1m0,3v6.1m0,3V118m0,3v6.1m0,3v6.1m0,2.9v6.1m0,3v6.1m0,3v6.1m0,3v6.1m0,3v6.1m0,3v3.1h-.2v-3.1m-.1-3.1v-6.1m0-2.9v-6.1m0-3v-6.1m0-3v-6.1m0-3v-6.1m0-3V130m0-3v-6.1m0-3v-6.1m0-2.9v-6.1m0-3V93.7m0-3V84.6m0-3V78.5h.2v3.1"/>
    </g>
    <g>
      <path class="cls-3" d="M189.2,187.6c-.1.1-.2.1-.2,0L91.1,89.7c-.1-.1-.1-.2,0-.2s.2-.1.2,0l97.9,97.9v.2Z"/>
      <path class="cls-5" d="M184.6,183.2l-4.3-4.4m-2.2-2.1-4.3-4.3m-2.2-2.2-4.4-4.4m-2.2-2.1-4.4-4.3m-2.1-2.3-4.3-4.3m-2.2-2.2-4.3-4.4m-2.2-2.1-4.4-4.4m-2.2-2.1-4.4-4.3m-2.1-2.3-4.3-4.4m-2.2-2.1-4.3-4.4m-2.2-2.1-4.4-4.4m-2.2-2.1-4.3-4.3m-2.2-2.3-4.3-4.4m-2.2-2.1-4.3-4.3m-2.2-2.2-2.2-2.2v-.2h.2l2.2,2.2m2.2,2.1,4.4,4.4m2.1,2.2,4.3,4.3m2.2,2.2,4.3,4.4m2.2,2.1,4.3,4.4m2.3,2.1,4.3,4.3m2.2,2.3,4.3,4.4m2.2,2.1,4.4,4.3m2.1,2.2,4.4,4.3m2.2,2.2,4.4,4.4m2.1,2.2,4.4,4.3m2.1,2.2,4.4,4.4m2.1,2.1,4.4,4.4m2.2,2.1,4.3,4.3m2.2,2.3,4.3,4.4m2.2,2.1,2.2,2.2v.2H189l-2.2-2.2"/>
    </g>
    <path class="cls-6" d="M196.4,187.2a6.6,6.6,0,1,1-6.6-6.5,6.51,6.51,0,0,1,6.6,6.5Zm-90.2,90.7a1.15,1.15,0,0,1,0,1.7l-3.1,3.1a1.15,1.15,0,0,1-1.7,0L95,276.3a1.15,1.15,0,0,1,0-1.7l3.1-3.1a1.15,1.15,0,0,1,1.7,0Z"/>
    <path class="cls-6" d="M99.3,261.4c0-.7.4-.8.9-.4l16.7,16.7c.5.5.3.9-.3.9l-17.1,1a1,1,0,0,1-1.1-1.1ZM81.8,85.2a1.15,1.15,0,0,1-1.7,0l-3.2-3.1a1.15,1.15,0,0,1,0-1.7L83.3,74A1.15,1.15,0,0,1,85,74l3.2,3.1a1.15,1.15,0,0,1,0,1.7Z"/>
    <path class="cls-6" d="M98.4,78.2c.7,0,.8.4.4.9L82.2,95.9c-.5.5-.9.3-.9-.3L80.2,78.5a1,1,0,0,1,1.1-1.1Zm192.1.9a1.15,1.15,0,0,1,0-1.7l3.1-3.1a1.15,1.15,0,0,1,1.7,0l6.4,6.4a1.15,1.15,0,0,1,0,1.7l-3.1,3.2a1.15,1.15,0,0,1-1.7,0Z"/>
    <path class="cls-6" d="M297.5,95.6c0,.7-.4.8-.9.4L279.8,79.4c-.5-.5-.3-.9.3-.9l17.1-1.1a1,1,0,0,1,1.1,1.1Z"/>
    <g>
      <path class="cls-3" d="M270.7,268.9c-.1.1-.2.1-.2,0l-80.1-80.1c-.1-.1-.1-.2,0-.2s.2-.1.2,0l80.1,80.1c.1.1.1.2,0,.2Z"/>
      <path class="cls-5" d="M266.4,264.8l-4.1-4.1m-2-2.1-4.1-4.1m-2.1-2-4.1-4.1m-2.1-2.1-4.1-4.1m-2-2-4.1-4.1m-2.1-2.1-4.1-4.1m-2.1-2.1-4.1-4.1m-2-2-4.1-4.1m-2.1-2.1-4.1-4.1m-2-2.1-4.1-4.1m-2.1-2-4.1-4.1m-2.1-2.1-4.1-4.1m-2-2-2.1-2.1v-.2h.2l2.1,2.1m2,2,4.1,4.1m2.1,2.1L205,203m2.1,2,4.1,4.1m2,2.1,4.1,4.1m2.1,2,4.1,4.1m2.1,2.1,4.1,4.1m2,2.1,4.1,4.1m2.1,2,4.1,4.1m2,2.1,4.1,4.1m2.1,2.1,4.1,4.1m2.1,2,4.1,4.1m2,2.1,4.1,4.1m2.1,2,2.1,2.1v.2h-.2l-2.1-2.1"/>
    </g>
    <path class="cls-6" d="M280.7,271.8a1.15,1.15,0,0,1,1.7,0l3.1,3.2a1.15,1.15,0,0,1,0,1.7L279,283a1.15,1.15,0,0,1-1.7,0l-3.1-3.2a1.15,1.15,0,0,1,0-1.7Z"/>
    <path class="cls-6" d="M264.1,278.5c-.7,0-.8-.5-.3-.9l16.9-16.5c.5-.5.9-.3.9.4l.8,17.1a1,1,0,0,1-1.1,1.1Z"/>
    <text class="cls-7" transform="translate(210.34 183.93)">135°</text>
    <text class="cls-7" transform="translate(159.44 140.84)">45°</text>
  </g>
  <text class="cls-8" transform="translate(79.1 298.08)">SL</text>
  <text class="cls-8" transform="translate(282.4 298.08)">SR</text>
  <text class="cls-8" transform="translate(57.46 73.61)">FL</text>
  <text class="cls-8" transform="translate(300.9 73.91)">FR</text>
</svg>
