<svg id="Layer_1" data-name="Layer 1" xmlns="http://www.w3.org/2000/svg" width="380" height="380" viewBox="0 0 380 380">
  <defs>
    <style>
      .cls-1, .cls-9 {
        fill: #f9f9fa;
      }

      .cls-2, .cls-3 {
        fill: #fff;
      }

      .cls-2, .cls-6, .cls-8, .cls-9 {
        stroke: #010101;
      }

      .cls-2, .cls-8, .cls-9 {
        stroke-opacity: 0;
        stroke-width: 3px;
      }

      .cls-3, .cls-5 {
        stroke: #ccc;
      }

      .cls-3 {
        stroke-width: 2px;
      }

      .cls-4, .cls-5, .cls-6, .cls-7 {
        fill: none;
      }

      .cls-5, .cls-6, .cls-7 {
        stroke-width: 1.5px;
      }

      .cls-7 {
        stroke: #333;
      }

      .cls-10, .cls-11, .cls-8 {
        fill: #010101;
      }

      .cls-10, .cls-11 {
        isolation: isolate;
        font-family: Calibri;
      }

      .cls-10 {
        font-size: 14px;
      }

      .cls-11 {
        font-size: 20px;
      }
    </style>
  </defs>
  <g>
    <path class="cls-1" d="M0,0H380V380H0Z"/>
    <path class="cls-2" d="M297.3,192.7A110.9,110.9,0,1,1,186.4,81.8,110.9,110.9,0,0,1,297.3,192.7Z"/>
    <path class="cls-3" d="M171.9,189.3a1.16,1.16,0,0,1,1.2-1.2H185a1.16,1.16,0,0,1,1.2,1.2v12a1.16,1.16,0,0,1-1.2,1.2H173.1a1.16,1.16,0,0,1-1.2-1.2v-12Z"/>
    <g>
      <path class="cls-4" d="M186.1,82a.22.22,0,0,1,.2.2V301.6a.1.1,0,0,1-.1.1.35.35,0,0,1-.2-.1V82.1l.1-.1Z"/>
      <path class="cls-5" d="M186.3,88.2v6.1m0,3.1v6.1m0,3v6.1m0,3.1v6.1m0,3v6.1m0,3V140m0,3.1v6.1m0,3v6.1m0,3.1v6.1m0,3v6.1m0,3v6.1m0,3.1v6.1m0,3V204m0,3.1v6.1m0,3v6.1m0,3.1v6.1m0,3v6.1m0,3v6.1m0,3.1v6.1m0,3V268m0,3.1v6.1m0,3v6.1m0,3v6.1m0,3.1v3.1h-.2v-3.1m-.1-3.1v-6.1m0-3v-6.1m0-3v-6.1m0-3.1v-6.1m0-3v-6.1m0-3.1v-6.1m0-3v-6.1m0-3.1v-6.1m0-3v-6.1m0-3v-6.1m0-3.1v-6.1m0-3v-6.1m0-3.1v-6.1m0-3v-6.1m0-3v-6.1m0-3.1v-6.1m0-3v-6.1m0-3.1v-6.1m0-3v-6.1m0-3.1v-6.1m0-3v-6.1m0-3V97.4m0-3.1V88.2m0-3V82.1h.2v3.1"/>
    </g>
    <g>
      <path class="cls-4" d="M126.9,248.1c-.1-.1-.1-.2,0-.2l59-59c.1-.1.2-.1.2,0s.1.2,0,.2l-59,59Z"/>
      <path class="cls-6" d="M131.3,243.5l4.4-4.4m2.2-2.2,4.4-4.4m2.1-2.1,4.4-4.4m2.2-2.2,4.4-4.4m2.1-2.1,4.4-4.4m2.2-2.2,4.4-4.4m2.1-2.1,4.4-4.4m2.2-2.2,4.4-4.4m2.1-2.1,2.2-2.2h.2v.2l-2.2,2.2m-2.1,2.2-4.4,4.4m-2.2,2.1-4.4,4.4m-2.1,2.2-4.4,4.4m-2.2,2.1-4.4,4.4m-2.2,2.2-4.4,4.4m-2.1,2.1-4.4,4.4m-2.2,2.2-4.4,4.4m-2.1,2.1-4.4,4.4m-2.2,2.2-2.2,2.2h-.2v-.2l2.2-2.2"/>
    </g>
    <g>
      <path class="cls-4" d="M248,294.2c-.1,0-.2,0-.2-.1L123.5,81.6c0-.1,0-.2.1-.2s.2,0,.2.1L248,294a.14.14,0,0,1,0,.2Z"/>
      <path class="cls-6" d="M244.7,288.9l-3.1-5.2m-1.5-2.7-3.1-5.2m-1.5-2.6-3.1-5.2m-1.5-2.7-3.1-5.2m-1.5-2.7-3.1-5.2m-1.5-2.7-3.1-5.2m-1.5-2.6-3.1-5.2m-1.5-2.7-3.1-5.2m-1.5-2.7-3.1-5.2m-1.5-2.6-3.1-5.2m-1.6-2.7-3.1-5.2m-1.5-2.7-3.1-5.2m-1.5-2.7-3.1-5.2m-1.5-2.6-3.1-5.2m-1.5-2.7-3.1-5.2m-1.5-2.7-3.1-5.2M171,163l-3.1-5.2m-1.5-2.7-3.1-5.2m-1.5-2.7-3.1-5.2m-1.5-2.7-3.1-5.2m-1.5-2.6-3.1-5.2m-1.5-2.7-3.1-5.2m-1.5-2.7-3.1-5.2m-1.5-2.7-3.1-5.3m-1.5-2.5-3.1-5.2m-1.5-2.7-3.1-5.2M125,84.2l-1.5-2.6v-.1l.1-.1h.1l.1.1,1.5,2.6m1.5,2.6,3.1,5.2m1.5,2.7,3.1,5.2m1.5,2.6,3.1,5.2m1.5,2.7,3.1,5.2m1.5,2.7,3.1,5.2m1.5,2.7,3.1,5.2m1.5,2.6,3.1,5.2m1.5,2.7,3.1,5.2m1.5,2.7,3.1,5.2m1.5,2.6,3.1,5.2m1.5,2.7,3.1,5.2m1.5,2.7,3.1,5.2m1.5,2.7,3.1,5.2m1.5,2.6,3.1,5.2m1.5,2.7,3.1,5.2m1.5,2.7,3.1,5.2m1.5,2.7,3.1,5.2m1.6,2.6,3.1,5.2m1.5,2.7,3.1,5.2m1.5,2.7,3.1,5.2m1.5,2.6,3.1,5.2m1.5,2.7,3.1,5.2m1.5,2.7,3.1,5.2m1.5,2.7,3.1,5.2m1.5,2.6,3.1,5.2m1.5,2.7,3.1,5.2m1.5,2.7L248,294v.1l-.1.1h-.1l-.1-.1-1.5-2.6"/>
    </g>
    <g>
      <path class="cls-4" d="M124.7,82a.22.22,0,0,1,.2.2v47.4a.2.2,0,0,1-.4,0V82.1A.35.35,0,0,1,124.7,82Z"/>
      <path class="cls-7" d="M124.8,88.5v6.3m0,3.1v6.3m0,3.2v6.3m0,3.2v6.3m0,3.2v3.3h-.2v-3.3m-.1-3.2v-6.3m0-3.2v-6.3m0-3.1V98m0-3.2V88.5m0-3.2V82h.2v3.3"/>
    </g>
    <path class="cls-8" d="M63.5,193.7a1.16,1.16,0,0,1-1.2,1.2H57.9a1.16,1.16,0,0,1-1.2-1.2v-9.1a1.16,1.16,0,0,1,1.2-1.2h4.4a1.16,1.16,0,0,1,1.2,1.2Z"/>
    <path class="cls-8" d="M70.4,177.2c.5-.4.9-.3.9.4v23.6c0,.7-.4.8-.9.4L57.6,190.2a1,1,0,0,1,0-1.6Zm238.1,8a1.16,1.16,0,0,1,1.2-1.2h4.4a1.16,1.16,0,0,1,1.2,1.2v9.1a1.16,1.16,0,0,1-1.2,1.2h-4.4a1.16,1.16,0,0,1-1.2-1.2Z"/>
    <path class="cls-8" d="M301.6,201.8c-.5.4-.9.3-.9-.4V177.8c0-.7.4-.8.9-.4l12.8,11.4a1,1,0,0,1,0,1.6ZM120.7,82.5a1.23,1.23,0,0,1-1.6-.4l-2.2-3.8a1.23,1.23,0,0,1,.4-1.6l7.9-4.5a1.23,1.23,0,0,1,1.6.4l2.2,3.8a1.23,1.23,0,0,1-.4,1.6Z"/>
    <path class="cls-8" d="M138.5,80.2c.6.2.7.6.1,1L118.1,93c-.6.3-.9.1-.8-.6l3.5-16.8a1.1,1.1,0,0,1,1.4-.8ZM255.3,295a1.17,1.17,0,0,1,1.6.5l2.2,3.9a1.17,1.17,0,0,1-.5,1.6l-7.9,4.5a1.17,1.17,0,0,1-1.6-.5l-2.2-3.9a1.17,1.17,0,0,1,.5-1.6Z"/>
    <path class="cls-8" d="M237.5,297.2c-.6-.2-.7-.6-.1-1l20.5-11.7c.6-.3.9-.1.8.6l-3.6,16.8a1.1,1.1,0,0,1-1.4.8ZM182,55.8a1.16,1.16,0,0,1-1.2-1.2V50.2A1.16,1.16,0,0,1,182,49h9.1a1.16,1.16,0,0,1,1.2,1.2v4.4a1.16,1.16,0,0,1-1.2,1.2Z"/>
    <path class="cls-8" d="M198.6,62.7c.4.5.3.9-.4.9H174.6c-.7,0-.8-.4-.4-.9l11.4-12.8a1,1,0,0,1,1.6,0ZM123.5,299.4a1.08,1.08,0,0,1,.4,1.6l-2.3,3.8a1.08,1.08,0,0,1-1.6.4l-7.8-4.6a1.08,1.08,0,0,1-.4-1.6l2.3-3.8a1.08,1.08,0,0,1,1.6-.4Z"/>
    <path class="cls-8" d="M112.7,285c-.1-.7.2-.9.8-.6l20.3,12.1c.6.3.5.8-.1,1l-16.3,5.1a1.14,1.14,0,0,1-1.4-.8ZM317.8,21a1.16,1.16,0,0,1,1.2-1.2h17.6a1.16,1.16,0,0,1,1.2,1.2V45.8a1.16,1.16,0,0,1-1.2,1.2H319a1.16,1.16,0,0,1-1.2-1.2Z"/>
    <path class="cls-9" d="M333.9,33.4c0,4.3-2.8,7.7-6.1,7.7s-6.2-3.5-6.2-7.7,2.8-7.7,6.1-7.7,6.2,3.5,6.2,7.7Z"/>
    <path class="cls-8" d="M330.1,33.4a2.33,2.33,0,0,1-2.3,2.3,2.3,2.3,0,0,1,0-4.6,2.33,2.33,0,0,1,2.3,2.3Z"/>
    <path class="cls-9" d="M328.8,33.4a1,1,0,0,1-2,0,.94.94,0,0,1,1-1,1.08,1.08,0,0,1,1,1Z"/>
    <path class="cls-8" d="M243.4,78.2a1.08,1.08,0,0,1-.4-1.6l2.2-3.8a1.08,1.08,0,0,1,1.6-.4l7.8,4.5a1.08,1.08,0,0,1,.4,1.6l-2.2,3.8a1.08,1.08,0,0,1-1.6.4Z"/>
    <path class="cls-8" d="M254.3,92.4c.1.7-.2.9-.8.6L233.1,81.2c-.6-.3-.5-.8.1-1l16.3-5.3a1.1,1.1,0,0,1,1.4.8ZM236.9,117a1.16,1.16,0,0,1,1.2-1.2h17.6a1.16,1.16,0,0,1,1.2,1.2v24.8a1.16,1.16,0,0,1-1.2,1.2H238.1a1.16,1.16,0,0,1-1.2-1.2Z"/>
    <path class="cls-9" d="M253.1,129.4c0,4.3-2.8,7.7-6.2,7.7s-6.1-3.4-6.1-7.7,2.8-7.7,6.1-7.7,6.2,3.5,6.2,7.7Z"/>
    <path class="cls-8" d="M249.2,129.4a2.3,2.3,0,1,1-4.6,0,2.26,2.26,0,0,1,2.3-2.3,2.39,2.39,0,0,1,2.3,2.3Z"/>
    <path class="cls-9" d="M247.9,129.4a.94.94,0,0,1-1,1,1,1,0,0,1-1-1,.94.94,0,0,1,1-1,1,1,0,0,1,1,1Z"/>
    <path class="cls-8" d="M114.7,117a1.16,1.16,0,0,1,1.2-1.2h17.6a1.16,1.16,0,0,1,1.2,1.2v24.8a1.16,1.16,0,0,1-1.2,1.2H115.9a1.16,1.16,0,0,1-1.2-1.2Z"/>
    <path class="cls-9" d="M130.8,129.4c0,4.3-2.8,7.7-6.1,7.7s-6.2-3.4-6.2-7.7,2.8-7.7,6.2-7.7,6.1,3.5,6.1,7.7Z"/>
    <path class="cls-8" d="M127,129.4a2.33,2.33,0,0,1-2.3,2.3,2.3,2.3,0,0,1,0-4.6,2.47,2.47,0,0,1,2.3,2.3Z"/>
    <path class="cls-9" d="M125.7,129.4a1,1,0,1,1-1-1,1.08,1.08,0,0,1,1,1Z"/>
    <path class="cls-8" d="M236.9,237a1.16,1.16,0,0,1,1.2-1.2h17.6a1.16,1.16,0,0,1,1.2,1.2v24.8a1.16,1.16,0,0,1-1.2,1.2H238.1a1.16,1.16,0,0,1-1.2-1.2Z"/>
    <path class="cls-9" d="M253.1,249.4c0,4.3-2.8,7.7-6.2,7.7s-6.1-3.4-6.1-7.7,2.8-7.7,6.1-7.7,6.2,3.4,6.2,7.7Z"/>
    <path class="cls-8" d="M249.2,249.4a2.33,2.33,0,0,1-2.3,2.3,2.3,2.3,0,0,1,0-4.6,2.33,2.33,0,0,1,2.3,2.3Z"/>
    <path class="cls-9" d="M247.9,249.4a.94.94,0,0,1-1,1,1,1,0,0,1-1-1,1,1,0,0,1,2,0Z"/>
    <path class="cls-8" d="M114.6,237a1.16,1.16,0,0,1,1.2-1.2h17.6a1.16,1.16,0,0,1,1.2,1.2v24.8a1.16,1.16,0,0,1-1.2,1.2H115.8a1.16,1.16,0,0,1-1.2-1.2Z"/>
    <path class="cls-9" d="M130.8,249.4c0,4.3-2.8,7.7-6.2,7.7s-6.1-3.4-6.1-7.7,2.8-7.7,6.1-7.7,6.2,3.4,6.2,7.7Z"/>
    <path class="cls-8" d="M126.9,249.4a2.3,2.3,0,1,1-4.6,0,2.26,2.26,0,0,1,2.3-2.3,2.33,2.33,0,0,1,2.3,2.3Z"/>
    <path class="cls-9" d="M125.6,249.4a.94.94,0,0,1-1,1,1,1,0,0,1-1-1,1,1,0,0,1,2,0Z"/>
    <g>
      <path class="cls-4" d="M187.3,188.1a.1.1,0,0,1-.1.1H75.8a.35.35,0,0,1-.2-.1.22.22,0,0,1,.2-.2H187.2A.31.31,0,0,1,187.3,188.1Z"/>
      <path class="cls-5" d="M181,188.3h-6.2m-3.1,0h-6.2m-3.1,0h-6.2m-3.1,0h-6.2m-3,0h-6.2m-3.1,0h-6.2m-3.1,0h-6.2m-3.1,0h-6.2m-3.1,0h-6.2m-3.1,0H91.2m-3,0H82m-3.1,0H75.7v-.2h3.2M82,188h6.2m3,0h6.2m3.1,0h6.2m3.1,0H116m3.1,0h6.2m3.1,0h6.2m3.1,0h6.2m3,0h6.2m3.1,0h6.2m3.1,0h6.2m3.1,0H181m3.1,0h3.2v.2h-3.2"/>
    </g>
    <path class="cls-8" d="M192.7,188.5a6.6,6.6,0,1,1-6.6-6.5,6.51,6.51,0,0,1,6.6,6.5Z"/>
  </g>
  <text class="cls-10" transform="translate(207.78 186.26)">150°</text>
  <text class="cls-10" transform="translate(160.55 232.78)">45°</text>
  <text class="cls-10" transform="translate(160.87 134.09)">30°</text>
  <text class="cls-11" transform="translate(33.85 195.6)">SL</text>
  <text class="cls-11" transform="translate(319.08 195.6)">SR</text>
  <text class="cls-11" transform="translate(98.9 320.96)">BL</text>
  <text class="cls-11" transform="translate(253.32 320.9)">BR</text>
  <text class="cls-11" transform="translate(98.89 72.09)">FL</text>
  <text class="cls-11" transform="translate(253.31 72.03)">FR</text>
  <text class="cls-11" transform="translate(180.18 44.68)">C</text>
  <text class="cls-11" transform="translate(112.9 158.54)">TFL</text>
  <text class="cls-11" transform="translate(233.11 158.48)">TFR</text>
  <text class="cls-11" transform="translate(110.7 232.53)">TBL</text>
  <text class="cls-11" transform="translate(230.91 232.47)">TBR</text>
  <text class="cls-11" transform="translate(314.3 63.6)">LFE</text>
</svg>
