<svg id="Layer_1" data-name="Layer 1" xmlns="http://www.w3.org/2000/svg" width="380" height="380" viewBox="0 0 380 380">
  <defs>
    <style>
      .cls-1 {
        fill: #f9f9fa;
      }

      .cls-2, .cls-3, .cls-8 {
        fill: #fff;
      }

      .cls-2, .cls-6, .cls-7, .cls-8 {
        stroke: #010101;
      }

      .cls-2, .cls-6, .cls-8 {
        stroke-opacity: 0;
        stroke-width: 3px;
      }

      .cls-3, .cls-5 {
        stroke: #ccc;
      }

      .cls-3 {
        stroke-width: 2px;
      }

      .cls-4, .cls-5, .cls-7 {
        fill: none;
      }

      .cls-5, .cls-7 {
        stroke-width: 1.5px;
      }

      .cls-10, .cls-6, .cls-9 {
        fill: #010101;
      }

      .cls-8 {
        fill-opacity: 0;
      }

      .cls-10, .cls-9 {
        isolation: isolate;
        font-family: Calibri;
      }

      .cls-9 {
        font-size: 14px;
      }

      .cls-10 {
        font-size: 20px;
      }
    </style>
  </defs>
  <g>
    <path class="cls-1" d="M0,0H380V380H0V0Z"/>
    <path class="cls-2" d="M304.1,187.1A110.9,110.9,0,1,1,193.2,76.2,110.9,110.9,0,0,1,304.1,187.1Z"/>
    <path class="cls-3" d="M193,174.6a1.16,1.16,0,0,1,1.2-1.2h11.9a1.16,1.16,0,0,1,1.2,1.2v12a1.16,1.16,0,0,1-1.2,1.2H194.2a1.16,1.16,0,0,1-1.2-1.2Z"/>
    <g>
      <path class="cls-4" d="M193,78.3a.22.22,0,0,1,.2.2v109c0,.1-.1.1-.2.1a.35.35,0,0,1-.2-.1V78.5A.22.22,0,0,1,193,78.3Z"/>
      <path class="cls-5" d="M193.1,84.5v6.1m0,3v6.1m0,3v6.1m0,3v6.1m0,3V127m0,2.9V136m0,3v6.1m0,3v6.1m0,3v6.1m0,3v6.1m0,3v6.1m0,3v3.1h-.2v-3.1m-.1-3.1v-6.1m0-3v-6.1m0-2.9v-6.1m0-3v-6.1m0-3V139m0-3v-6.1m0-3v-6.1m0-3v-6.1m0-2.9v-6.1m0-3V93.6m0-3V84.5m0-3V78.4h.2v3.1"/>
    </g>
    <path class="cls-6" d="M199.6,187.1a6.6,6.6,0,1,1-6.6-6.5A6.51,6.51,0,0,1,199.6,187.1Z"/>
    <g>
      <path class="cls-4" d="M311.4,187.8a.1.1,0,0,1-.1.1H201.6a.35.35,0,0,1-.2-.1c0-.1.1-.1.2-.1H311.3l.1.1Z"/>
      <path class="cls-7" d="M305.1,188H299m-3,0h-6.1m-3.1,0h-6.1m-3,0h-6.1m-3,0h-6.1m-3.1,0h-6.1m-3,0h-6.1m-3.1,0H235m-3,0h-6.1m-3.1,0h-6.1m-3,0h-6.1m-3,0h-3.1v-.2h3.1m3-.1h6.1m3.1,0h6.1m3,0H232m3,0h6.1m3.1,0h6.1m3,0h6.1m3.1,0h6.1m3,0h6.1m3,0h6.1m3.1,0H296m3,0h6.1m3.1,0h3.1v.2h-3.1"/>
    </g>
    <path class="cls-6" d="M315.1,184.5a1.16,1.16,0,0,1,1.2-1.2h4.4a1.16,1.16,0,0,1,1.2,1.2v9.1a1.16,1.16,0,0,1-1.2,1.2h-4.4a1.16,1.16,0,0,1-1.2-1.2Z"/>
    <path class="cls-6" d="M308.2,201.1c-.5.4-.9.3-.9-.4V177.1c0-.7.4-.8.9-.4L321,188.1a1,1,0,0,1,0,1.6Zm-238.1-8a1.16,1.16,0,0,1-1.2,1.2H64.5a1.16,1.16,0,0,1-1.2-1.2V184a1.16,1.16,0,0,1,1.2-1.2h4.4a1.16,1.16,0,0,1,1.2,1.2Z"/>
    <path class="cls-6" d="M77,176.5c.5-.4.9-.3.9.4v23.6c0,.7-.4.8-.9.4L64.2,189.5a1,1,0,0,1,0-1.6Z"/>
    <path class="cls-8" d="M307.3,184.2a1.16,1.16,0,0,1,1.2-1.2h45.6a1.16,1.16,0,0,1,1.2,1.2V195a1.16,1.16,0,0,1-1.2,1.2H308.5a1.16,1.16,0,0,1-1.2-1.2Z"/>
  </g>
  <text class="cls-9" transform="translate(213.69 166.27)">90°</text>
  <text class="cls-10" transform="translate(48.65 195.48)">L</text>
  <text class="cls-10" transform="translate(326.88 195.48)">R</text>
</svg>
