<svg id="Layer_1" data-name="Layer 1" xmlns="http://www.w3.org/2000/svg" width="380" height="380" viewBox="0 0 380 380">
  <defs>
    <style>
      .cls-1, .cls-7 {
        fill: #f9f9fa;
      }

      .cls-2, .cls-5 {
        fill: #fff;
      }

      .cls-2, .cls-5, .cls-6, .cls-7, .cls-8 {
        stroke: #010101;
      }

      .cls-2, .cls-5, .cls-6, .cls-7 {
        stroke-opacity: 0;
        stroke-width: 3px;
      }

      .cls-3, .cls-4, .cls-8 {
        fill: none;
      }

      .cls-4 {
        stroke: #ccc;
      }

      .cls-4, .cls-8 {
        stroke-width: 1.5px;
      }

      .cls-5 {
        fill-opacity: 0;
      }

      .cls-10, .cls-6, .cls-9 {
        fill: #010101;
      }

      .cls-10, .cls-9 {
        isolation: isolate;
        font-family: Calibri;
      }

      .cls-9 {
        font-size: 14px;
      }

      .cls-10 {
        font-size: 20px;
      }
    </style>
  </defs>
  <g>
    <path class="cls-1" d="M0,0H380V380H0V0Z"/>
    <path class="cls-2" d="M307.9,192.1A110.9,110.9,0,1,1,197,81.2,110.9,110.9,0,0,1,307.9,192.1Z"/>
    <g>
      <path class="cls-3" d="M196.8,83.2a.22.22,0,0,1,.2.2v109a.22.22,0,0,1-.2.2.1.1,0,0,1-.1-.1V83.5c0-.2,0-.3.1-.3Z"/>
      <path class="cls-4" d="M197,89.4v6.1m0,3v6.1m0,3v6.1m0,3v6.1m0,3v6.1m0,3V141m0,3v6.1m0,2.9v6.1m0,3v6.1m0,3v6.1m0,3v6.1m0,3v3.1h-.2v-3.1m-.1-3v-6.1m0-3v-6.1m0-3v-6.1m0-3V153m0-3v-6m0-3.1v-6.1m0-3v-6.1m0-2.9v-6.1m0-3v-6.1m0-3V98.5m0-3V89.4m0-3V83.3h.2v3.1"/>
    </g>
    <path class="cls-5" d="M175.7,147.5a1.16,1.16,0,0,1,1.2-1.2h17.6a1.16,1.16,0,0,1,1.2,1.2v9.6a1.16,1.16,0,0,1-1.2,1.2H176.9a1.16,1.16,0,0,1-1.2-1.2Z"/>
    <path class="cls-6" d="M203.4,192.1a6.6,6.6,0,1,1-6.6-6.5,6.51,6.51,0,0,1,6.6,6.5ZM120.7,72a1.23,1.23,0,0,1-1.6-.4l-2.2-3.8a1.23,1.23,0,0,1,.4-1.6l7.9-4.5a1.23,1.23,0,0,1,1.6.4l2.2,3.8a1.23,1.23,0,0,1-.4,1.6Z"/>
    <path class="cls-6" d="M138.5,69.7c.6.2.7.6.1,1L118.1,82.5c-.6.3-.9.1-.8-.6l3.5-16.8a1.1,1.1,0,0,1,1.4-.8Zm54.2-10.3a1.16,1.16,0,0,1-1.2-1.2V53.8a1.16,1.16,0,0,1,1.2-1.2h9.1a1.16,1.16,0,0,1,1.2,1.2v4.4a1.16,1.16,0,0,1-1.2,1.2Z"/>
    <path class="cls-6" d="M209.2,66.2c.4.5.3.9-.4.9H185.2c-.7,0-.8-.4-.4-.9l11.4-12.8a1,1,0,0,1,1.6,0Zm56.3,1.5a1.08,1.08,0,0,1-.4-1.6l2.2-3.8a1.08,1.08,0,0,1,1.6-.4l7.8,4.5a1.08,1.08,0,0,1,.4,1.6l-2.2,3.8a1.08,1.08,0,0,1-1.6.4Z"/>
    <path class="cls-6" d="M276.4,81.9c.1.7-.2.9-.8.6L255.2,70.7c-.6-.3-.5-.8.1-1l16.3-5.3a1.1,1.1,0,0,1,1.4.8Zm52.1-57.3a1.16,1.16,0,0,1,1.2-1.2h17.6a1.16,1.16,0,0,1,1.2,1.2V49.4a1.16,1.16,0,0,1-1.2,1.2H329.7a1.16,1.16,0,0,1-1.2-1.2Z"/>
    <path class="cls-7" d="M344.6,37c0,4.3-2.8,7.7-6.2,7.7s-6.1-3.5-6.1-7.7,2.8-7.7,6.1-7.7S344.6,32.7,344.6,37Z"/>
    <path class="cls-6" d="M340.7,37a2.3,2.3,0,1,1-2.3-2.3,2.26,2.26,0,0,1,2.3,2.3Z"/>
    <path class="cls-7" d="M339.5,37a1,1,0,0,1-2,0,.94.94,0,0,1,1-1A1,1,0,0,1,339.5,37Z"/>
    <g>
      <path class="cls-3" d="M196.8,192.9c-.1,0-.2,0-.2-.1L126.7,73.3c0-.1,0-.2.1-.2s.2,0,.2.1l69.9,119.5a.31.31,0,0,1-.1.2Z"/>
      <path class="cls-8" d="M193.5,187.5l-3.1-5.3m-1.6-2.7-3.1-5.3m-1.5-2.6-3.1-5.3m-1.6-2.7-3.1-5.3m-1.5-2.7-3.1-5.3m-1.6-2.6-3.1-5.3m-1.6-2.7-3.1-5.3m-1.5-2.7-3.1-5.3m-1.6-2.6-3.1-5.3m-1.5-2.7-3.1-5.3m-1.6-2.6-3.1-5.3m-1.6-2.7-3.1-5.3m-1.5-2.7-3.1-5.3m-1.6-2.7-3.1-5.3M128.3,76l-1.6-2.7v-.1l.1-.1h.1l.1.1,1.6,2.7m1.5,2.6,3.1,5.3m1.5,2.7,3.1,5.3m1.6,2.6,3.1,5.3m1.6,2.7,3.1,5.3m1.5,2.7,3.1,5.3m1.6,2.6,3.1,5.3m1.5,2.7,3.1,5.3m1.6,2.6,3.1,5.3m1.5,2.7,3.1,5.3m1.6,2.7,3.1,5.3m1.6,2.6,3.1,5.3m1.5,2.7,3.1,5.3m1.6,2.7,3.1,5.3m1.5,2.6,3.1,5.3m1.6,2.7,1.6,2.7v.1l-.1.1h-.1l-.1-.1-1.6-2.7"/>
    </g>
    <path class="cls-6" d="M75.2,219.9a1.17,1.17,0,0,1-1,1.4l-4.4.8a1.17,1.17,0,0,1-1.4-1l-1.6-8.9a1.17,1.17,0,0,1,1-1.4l4.4-.8a1.17,1.17,0,0,1,1.4,1Z"/>
    <path class="cls-6" d="M79.1,202.4c.4-.5.8-.4,1,.2l4.2,23.2c.1.7-.2.9-.8.6l-14.6-9a1.06,1.06,0,0,1-.3-1.6Z"/>
    <path class="cls-6" d="M320.7,210.9a1.17,1.17,0,0,1,1.4-1l4.4.8a1.17,1.17,0,0,1,1,1.4l-1.6,8.9a1.17,1.17,0,0,1-1.4,1l-4.4-.8a1.17,1.17,0,0,1-1-1.4Z"/>
    <path class="cls-6" d="M311.1,226.1c-.6.3-.9.1-.8-.5l4.1-23.3c.1-.7.5-.8,1-.2L326,215.5a1.07,1.07,0,0,1-.3,1.6Z"/>
    <g>
      <path class="cls-3" d="M310.7,212.5c0,.1-.1.1-.2.1L198.9,193.2c-.1,0-.1-.1-.1-.2s.1-.1.2-.1l111.6,19.4c.1.1.1.1.1.2Z"/>
      <path class="cls-8" d="M304.8,211.6l-5.7-1m-2.9-.5-5.7-1m-2.9-.5-5.7-1m-2.8-.4-5.7-1m-2.9-.5-5.7-1m-2.9-.5-5.7-1m-2.9-.5-5.7-1m-2.9-.5-5.7-1m-2.9-.5-5.7-1m-2.9-.5-5.7-1m-2.8-.5-5.7-1m-2.9-.5-5.7-1m-2.9-.5-2.9-.5-.1-.1V193l.1-.1h.1l2.9.5m2.8.5,5.7,1m2.9.5,5.7,1m2.9.5,5.7,1m2.9.5,5.7,1m2.8.5,5.7,1m2.9.5,5.7,1m2.9.5,5.7,1m2.9.5,5.7,1m2.9.5,5.7,1m2.9.5,5.7,1m2.9.5,5.7,1m2.8.5,5.7,1m2.9.4,2.9.5.1.1v.1l-.1.1h-.1l-2.9-.5"/>
    </g>
  </g>
  <text class="cls-9" transform="translate(213.3 180.3)">110°</text>
  <text class="cls-9" transform="translate(173.4 143.22)">30°</text>
  <text class="cls-10" transform="translate(44.65 226.38)">SL</text>
  <text class="cls-10" transform="translate(329.88 226.38)">SR</text>
  <text class="cls-10" transform="translate(109.69 57.87)">FL</text>
  <text class="cls-10" transform="translate(264.11 57.81)">FR</text>
  <text class="cls-10" transform="translate(190.98 47.46)">C</text>
  <text class="cls-10" transform="translate(325.1 66.38)">LFE</text>
</svg>
